<?xml version="1.0" encoding="UTF-8"?>
<svg id="Layer_2" data-name="Layer 2" xmlns="http://www.w3.org/2000/svg" xmlns:xlink="http://www.w3.org/1999/xlink" viewBox="0 0 649.34 609.03">
  <defs>
    <style>
      .cls-1 {
        fill: url(#linear-gradient);
      }

      .cls-1, .cls-2, .cls-3, .cls-4, .cls-5, .cls-6, .cls-7, .cls-8, .cls-9, .cls-10, .cls-11, .cls-12, .cls-13, .cls-14, .cls-15, .cls-16, .cls-17, .cls-18, .cls-19, .cls-20, .cls-21, .cls-22, .cls-23, .cls-24, .cls-25, .cls-26, .cls-27, .cls-28, .cls-29, .cls-30, .cls-31, .cls-32, .cls-33 {
        stroke-width: 0px;
      }

      .cls-2 {
        fill: url(#linear-gradient-2);
      }

      .cls-2, .cls-3, .cls-4, .cls-5, .cls-6, .cls-7, .cls-8, .cls-9, .cls-10, .cls-11, .cls-12, .cls-13, .cls-14, .cls-15, .cls-28, .cls-29, .cls-30, .cls-31, .cls-32, .cls-33 {
        isolation: isolate;
      }

      .cls-2, .cls-3, .cls-4, .cls-5, .cls-6, .cls-7, .cls-8, .cls-34, .cls-28, .cls-29, .cls-30, .cls-31, .cls-32, .cls-33 {
        opacity: .5;
      }

      .cls-3 {
        fill: url(#linear-gradient-4);
      }

      .cls-4 {
        fill: url(#linear-gradient-6);
      }

      .cls-5 {
        fill: url(#linear-gradient-7);
      }

      .cls-6 {
        fill: url(#linear-gradient-9);
      }

      .cls-7 {
        fill: url(#linear-gradient-5);
      }

      .cls-8 {
        fill: url(#linear-gradient-8);
      }

      .cls-9 {
        opacity: .2;
      }

      .cls-9, .cls-15, .cls-25 {
        fill: #fff;
      }

      .cls-10 {
        fill: #3ad29f;
      }

      .cls-10, .cls-11, .cls-12, .cls-13, .cls-14, .cls-15 {
        opacity: .3;
      }

      .cls-11, .cls-18, .cls-32 {
        fill: #4d8af0;
      }

      .cls-12, .cls-19, .cls-28 {
        fill: #294ace;
      }

      .cls-13, .cls-26, .cls-29 {
        fill: #ff5252;
      }

      .cls-14, .cls-24, .cls-30 {
        fill: #69f0ae;
      }

      .cls-16 {
        fill: url(#linear-gradient-3);
      }

      .cls-17, .cls-33 {
        fill: #47e6b1;
      }

      .cls-20 {
        fill: #e0e0e0;
      }

      .cls-21 {
        fill: #dbdbdb;
      }

      .cls-22 {
        fill: #bdbdbd;
      }

      .cls-23 {
        fill: #a1887f;
      }

      .cls-27 {
        fill: #f5f5f5;
      }

      .cls-31 {
        fill: #f55f44;
      }
    </style>
    <linearGradient id="linear-gradient" x1="-82.27" y1="644.11" x2="-82.27" y2="645.11" gradientTransform="translate(17707.78 135786.67) scale(210 -210)" gradientUnits="userSpaceOnUse">
      <stop offset="0" stop-color="gray" stop-opacity=".25"/>
      <stop offset=".54" stop-color="gray" stop-opacity=".12"/>
      <stop offset="1" stop-color="gray" stop-opacity=".1"/>
    </linearGradient>
    <linearGradient id="linear-gradient-2" x1="-82.7" y1="62.17" x2="-82.7" y2="187.17" gradientTransform="translate(12519.19 81022.36) scale(146.29 -125)" xlink:href="#linear-gradient"/>
    <linearGradient id="linear-gradient-3" x1="-82.16" y1="131.86" x2="-82.16" y2="440.58" gradientTransform="translate(17663.45 199249.83) scale(213.27 -308.72)" xlink:href="#linear-gradient"/>
    <linearGradient id="linear-gradient-4" x1="159.3" y1="647.68" x2="177.3" y2="647.68" gradientTransform="translate(8058.49 28994.79) rotate(-12.75) scale(18 -46)" xlink:href="#linear-gradient"/>
    <linearGradient id="linear-gradient-5" x1="-96.63" y1="264.74" x2="-84.27" y2="573.74" gradientTransform="translate(109948.78 7451.56) rotate(-73.39) scale(298.57 -165.51)" xlink:href="#linear-gradient"/>
    <linearGradient id="linear-gradient-6" x1="-80.83" y1="-110.63" x2="-80.83" y2="93.33" gradientTransform="translate(42321.19 11788.46) rotate(-52.76) scale(203.96 -62.36)" xlink:href="#linear-gradient"/>
    <linearGradient id="linear-gradient-7" x1="-80.62" y1="-175.27" x2="-80.62" y2="27.93" gradientTransform="translate(43629.16 -1946.08) rotate(-71.1) scale(203.2 -62.36)" xlink:href="#linear-gradient"/>
    <linearGradient id="linear-gradient-8" x1="-80.52" y1="-162.26" x2="-80.52" y2="40.94" gradientTransform="translate(42179.51 -10685.29) rotate(-82.8) scale(203.2 -62.36)" xlink:href="#linear-gradient"/>
    <linearGradient id="linear-gradient-9" x1="-82.3" y1="-73.25" x2="-82.3" y2="129.95" gradientTransform="translate(5301.96 131591.89) scale(62.36 -203.2)" xlink:href="#linear-gradient"/>
  </defs>
  <g id="Layer_1-2" data-name="Layer 1">
    <g>
      <circle class="cls-1" cx="431.77" cy="418.57" r="105"/>
      <circle class="cls-27" cx="431.77" cy="418.57" r="100"/>
      <path class="cls-2" d="M434.57,356.11c-32.75-1.13-60.82,23.22-64.31,55.81h-18c-2.01,0-3.64,1.63-3.64,3.64h0v6c0,2.01,1.63,3.64,3.64,3.64h18c3.54,33.19,32.53,57.74,65.85,55.76,33.32-1.98,59.2-29.79,58.79-63.16-.41-33.38-26.98-60.54-60.33-61.69Z"/>
      <path class="cls-25" d="M433.76,359.85c-30.78-1.05-57.14,21.85-60.41,52.47h-17.42c-1.61,0-2.92,1.31-2.92,2.92v6.68c0,1.61,1.31,2.92,2.92,2.92h17.42c3.36,31.19,30.63,54.24,61.94,52.36,31.32-1.89,55.63-28.04,55.22-59.41s-25.39-56.88-56.75-57.95h0s0,.01,0,.01Z"/>
      <circle class="cls-23" cx="431.77" cy="418.57" r="41.25"/>
      <path class="cls-9" d="M453.02,398.57s11.77,18.28,8.41,32.5c-.01,0,13.44-22.34-8.41-32.5Z"/>
      <circle class="cls-9" cx="458.02" cy="441.07" r="3.75"/>
      <rect class="cls-16" x="34.25" y="77.44" width="213.27" height="308.72" rx="13.44" ry="13.44" transform="translate(-47.68 36.81) rotate(-12.75)"/>
      <rect class="cls-19" x="35.92" y="81.4" width="207.97" height="302.01" rx="13.44" ry="13.44" transform="translate(-47.84 36.61) rotate(-12.75)"/>
      <path class="cls-22" d="M0,149.76l21.82-4.94.66,2.91-21.82,4.94-.66-2.91ZM2.31,159.94l21.82-4.94.66,2.91-21.82,4.94-.66-2.91ZM4.61,170.12l21.82-4.94.66,2.91-21.82,4.94-.66-2.91ZM6.92,180.31l21.82-4.94.66,2.91-21.82,4.94-.66-2.91ZM9.22,190.49l21.82-4.94.66,2.91-21.82,4.94-.66-2.91ZM11.53,200.67l21.82-4.94.66,2.91-21.82,4.94-.66-2.91ZM13.83,210.85l21.82-4.94.66,2.91-21.82,4.94-.66-2.91ZM16.13,221.03l21.82-4.94.66,2.91-21.82,4.94-.66-2.91ZM18.43,231.22l21.82-4.94.66,2.91-21.82,4.94-.66-2.91ZM20.73,241.4l21.82-4.94.66,2.91-21.82,4.94-.66-2.91ZM23.04,251.58l21.82-4.94.66,2.91-21.82,4.94-.66-2.91ZM25.34,261.76l21.82-4.94.66,2.91-21.82,4.94-.66-2.91ZM27.65,271.95l21.82-4.94.66,2.91-21.82,4.94-.66-2.91ZM29.95,282.13l21.82-4.94.66,2.91-21.82,4.94-.66-2.91ZM32.26,292.31l21.82-4.94.66,2.91-21.82,4.94-.66-2.91ZM34.56,302.49l21.82-4.94.66,2.91-21.82,4.94-.66-2.91ZM36.88,312.68l21.82-4.94.66,2.91-21.82,4.94-.66-2.91ZM39.18,322.86l21.82-4.94.66,2.91-21.82,4.94-.66-2.91ZM41.48,333.04l21.82-4.94.66,2.91-21.82,4.94-.66-2.91ZM43.79,343.22l21.82-4.94.66,2.91-21.82,4.94-.66-2.91ZM46.08,353.41l21.82-4.94.66,2.91-21.82,4.94-.66-2.91ZM48.39,363.59l21.82-4.94.66,2.91-21.82,4.94-.66-2.91ZM50.69,373.78l21.82-4.94.66,2.91-21.82,4.94-.66-2.91ZM53,383.95l21.82-4.94.66,2.91-21.82,4.94-.66-2.91Z"/>
      <path class="cls-24" d="M201.13,240.5l9.75-2.21,20.08,88.76-9.75,2.21-20.08-88.76Z"/>
      <path class="cls-3" d="M189.06,205.3l17.56-3.97,10.15,44.87-17.56,3.97-10.15-44.87Z"/>
      <path class="cls-24" d="M190.96,206.92l14.63-3.31,9.49,41.94-14.63,3.31-9.49-41.94Z"/>
      <path class="cls-15" d="M190.96,206.92l14.63-3.31,9.49,41.94-14.63,3.31-9.49-41.94Z"/>
      <path class="cls-24" d="M222.94,327.84l5.85-1.32,1.32,5.85-5.85,1.32-1.32-5.85ZM194.43,215.35l-3.9.88-1.95.44.44,1.95,3.75,16.58,1.95-.44-3.75-16.58,3.9-.88-.44-1.95Z"/>
      <path class="cls-15" d="M194.43,215.35l-3.9.88-1.95.44.44,1.95,3.75,16.58,1.95-.44-3.75-16.58,3.9-.88-.44-1.95Z"/>
      <g class="cls-34">
        <path class="cls-17" d="M437.77,20.57h3v17h-3v-17Z"/>
        <path class="cls-17" d="M447.77,27.57v3h-17v-3h17Z"/>
      </g>
      <g class="cls-34">
        <path class="cls-17" d="M347.77,237.57h3v17h-3v-17Z"/>
        <path class="cls-17" d="M357.77,244.57v3h-17v-3h17Z"/>
      </g>
      <g class="cls-34">
        <path class="cls-17" d="M518.87,282.1h3v17h-3v-17Z"/>
        <path class="cls-17" d="M528.87,289.11v3h-17v-3h17Z"/>
      </g>
      <path class="cls-32" d="M212.64,541.94c-1.69-.76-2.55-2.67-2-4.44.04-.13.07-.27.08-.41.07-1.01-.7-1.89-1.72-1.95-.62-.04-1.22.24-1.59.73-.08.11-.15.23-.2.36-.76,1.69-2.67,2.55-4.44,2-.13-.04-.27-.07-.41-.08-1.01-.07-1.89.7-1.95,1.72-.04.62.24,1.22.73,1.59.11.08.23.15.36.2,1.69.76,2.55,2.67,2,4.44-.04.13-.07.27-.08.41-.09,1.01.66,1.9,1.67,1.99.65.06,1.28-.23,1.66-.76.08-.11.15-.23.2-.36.76-1.69,2.67-2.55,4.44-2,.13.04.27.07.41.08,1.01.07,1.89-.7,1.95-1.72.04-.62-.24-1.22-.73-1.59-.12-.09-.25-.16-.38-.21h0ZM395.64,553.94c-1.69-.76-2.55-2.67-2-4.44.04-.13.07-.27.08-.41.07-1.01-.7-1.89-1.72-1.95-.62-.04-1.22.24-1.59.73-.08.11-.15.23-.2.36-.76,1.69-2.67,2.55-4.44,2-.13-.04-.27-.07-.41-.08-1.01-.07-1.89.7-1.95,1.72-.04.62.24,1.22.73,1.59.11.08.23.15.36.2,1.69.76,2.55,2.67,2,4.44-.04.13-.07.27-.08.41-.09,1.01.66,1.9,1.67,1.99.65.06,1.28-.23,1.66-.76.08-.11.15-.23.2-.36.76-1.69,2.67-2.55,4.44-2,.13.04.27.07.41.08,1.01.07,1.89-.7,1.95-1.72.04-.62-.24-1.22-.73-1.59-.12-.09-.25-.16-.38-.21ZM614.64,122.94c-1.69-.76-2.55-2.67-2-4.44.04-.13.07-.27.08-.41.07-1.01-.7-1.89-1.72-1.95-.62-.04-1.22.24-1.59.73-.08.11-.15.23-.2.36-.76,1.69-2.67,2.55-4.44,2-.13-.04-.27-.07-.41-.08-1.01-.07-1.89.7-1.95,1.72-.04.62.24,1.22.73,1.59.11.08.23.15.36.2,1.69.76,2.55,2.67,2,4.44-.04.13-.07.27-.08.41-.09,1.01.66,1.9,1.67,1.99.65.06,1.28-.23,1.66-.76.08-.11.15-.23.2-.36.76-1.69,2.67-2.55,4.44-2,.13.04.27.07.41.08,1.01.07,1.89-.7,1.95-1.72.04-.62-.24-1.22-.73-1.59-.12-.09-.25-.16-.38-.21h0Z"/>
      <circle class="cls-32" cx="234.77" cy="38.57" r="6"/>
      <circle class="cls-33" cx="209.77" cy="477.57" r="6"/>
      <circle class="cls-31" cx="520.37" cy="529.1" r="6"/>
      <path class="cls-7" d="M408.72,278.55L490.47,4.49c.99-3.32,4.49-5.21,7.81-4.22l146.56,43.72c3.33.99,5.22,4.5,4.23,7.83h0l-81.75,274.07c-.99,3.32-4.49,5.21-7.81,4.22l-146.55-43.72c-3.33-.98-5.23-4.47-4.25-7.8,0,0,0-.02,0-.03Z"/>
      <rect class="cls-25" x="383.92" y="88.9" width="291.47" height="161.48" rx="13.64" ry="13.64" transform="translate(214.1 627.61) rotate(-73.19)"/>
      <path class="cls-20" d="M607.22,44.45c-2.73,5.84-9.31,8.82-15.5,7l-53.29-16c-6.17-1.86-10.05-7.94-9.15-14.32l-28.21-8.37c-3.24-.96-6.64.88-7.61,4.11l-75.47,252.82c-.96,3.24.88,6.64,4.11,7.61l134.84,40.23c3.24.96,6.64-.88,7.61-4.11l75.44-252.82c.96-3.24-.88-6.64-4.11-7.61,0,0-28.66-8.54-28.66-8.54Z"/>
      <rect class="cls-21" x="564.64" y="18.9" width="2.24" height="35.88" rx="1.12" ry="1.12" transform="translate(375.43 570.89) rotate(-74.11)"/>
      <circle class="cls-21" cx="590.36" cy="43.64" r="1.35" transform="translate(386.75 599.49) rotate(-74.11)"/>
      <path class="cls-25" d="M496.3,62.76l42.42,11.68-10.09,36.63-42.42-11.68,10.09-36.64Z"/>
      <path class="cls-12" d="M481.69,115.77l42.42,11.68-10.09,36.63-42.42-11.68,10.09-36.64Z"/>
      <path class="cls-25" d="M467.09,168.81l42.42,11.68-10.09,36.64-42.42-11.68,10.09-36.64Z"/>
      <path class="cls-10" d="M452.48,221.83l42.42,11.68-10.09,36.64-42.42-11.68,10.09-36.64Z"/>
      <path class="cls-25" d="M546.93,86.04l55.92,15.4-1.06,3.86-55.92-15.4,1.06-3.86ZM543.74,97.61l55.92,15.4-1.06,3.86-55.92-15.4,1.06-3.86ZM532.59,138.1l55.92,15.4-1.06,3.86-55.92-15.4,1.06-3.86ZM529.4,149.67l55.92,15.4-1.06,3.86-55.92-15.4,1.06-3.86ZM518.25,190.16l55.92,15.4-1.06,3.86-55.92-15.4,1.06-3.86ZM515.06,201.73l55.92,15.4-1.06,3.86-55.92-15.4,1.06-3.86ZM503.91,242.22l55.92,15.4-1.06,3.86-55.92-15.4,1.06-3.86ZM500.72,253.79l55.92,15.4-1.06,3.86-55.92-15.4,1.06-3.86Z"/>
      <path class="cls-4" d="M151.83,571.29l123.43-162.37,49.65,37.74-123.43,162.37-49.65-37.74Z"/>
      <path class="cls-20" d="M276.11,411.29l47.2,35.88-121.77,160.2-47.2-35.88,121.77-160.2Z"/>
      <path class="cls-18" d="M281.12,419.16l33.36,25.36-25.36,33.36-33.36-25.36,25.36-33.36Z"/>
      <path class="cls-32" d="M250.5,459.45l33.36,25.36-25.36,33.36-33.36-25.36,25.36-33.36Z"/>
      <path class="cls-11" d="M219.87,499.73l33.36,25.36-25.36,33.36-33.36-25.36,25.36-33.36Z"/>
      <path class="cls-5" d="M140.36,588.15l65.82-192.24,59,20.2-65.82,192.24-59-20.2Z"/>
      <path class="cls-27" d="M207.63,397.83l56.09,19.21-64.94,189.66-56.09-19.21,64.93-189.66Z"/>
      <path class="cls-26" d="M214.84,403.72l39.65,13.58-13.58,39.65-39.65-13.58,13.58-39.65Z"/>
      <path class="cls-29" d="M198.45,451.59l39.65,13.58-13.58,39.65-39.65-13.58,13.58-39.65Z"/>
      <path class="cls-13" d="M182.06,499.47l39.65,13.58-13.58,39.65-39.65-13.57,13.58-39.65Z"/>
      <path class="cls-8" d="M139.92,598.94l25.47-201.6,61.87,7.82-25.47,201.6-61.87-7.82Z"/>
      <path class="cls-27" d="M167.31,398.98l58.82,7.43-25.13,198.89-58.82-7.43,25.13-198.89Z"/>
      <path class="cls-24" d="M175.53,403.28l41.58,5.25-5.25,41.58-41.58-5.25,5.25-41.58Z"/>
      <path class="cls-30" d="M169.19,453.48l41.58,5.25-5.25,41.58-41.58-5.25,5.25-41.58Z"/>
      <path class="cls-14" d="M162.85,503.68l41.58,5.25-5.25,41.58-41.58-5.25,5.25-41.58Z"/>
      <path class="cls-6" d="M138.28,404.49h62.36v203.2h-62.36v-203.2Z"/>
      <path class="cls-25" d="M140.32,405.85h59.29v200.47h-59.29v-200.47Z"/>
      <path class="cls-19" d="M149.01,409.09h41.91v41.91h-41.91v-41.91Z"/>
      <path class="cls-28" d="M149.01,459.69h41.91v41.91h-41.91v-41.91Z"/>
      <path class="cls-12" d="M149.01,510.3h41.91v41.91h-41.91v-41.91Z"/>
    </g>
  </g>
</svg>